<svg xmlns="http://www.w3.org/2000/svg" xmlns:xlink="http://www.w3.org/1999/xlink" width="398.999" height="398.999" viewBox="0 0 398.999 398.999"><defs><style>.a{stroke:rgba(0,0,0,0);stroke-miterlimit:10;fill:url(#a);}.b{fill:#70f;}.c{fill:#ff0040;}</style><linearGradient id="a" x1="0.5" x2="0.5" y2="1" gradientUnits="objectBoundingBox"><stop offset="0" stop-color="#ffe1f9" stop-opacity="0.961"/><stop offset="1" stop-color="#c797ff" stop-opacity="0.831"/></linearGradient></defs><g transform="translate(-760.5 -340.501)"><path class="a" d="M199,398a435.418,435.418,0,0,1-47.98-2.607,338.448,338.448,0,0,1-44.517-7.82,203.955,203.955,0,0,1-37.592-13.034c-11.3-5.362-20.457-11.5-27.2-18.247s-12.885-15.9-18.247-27.2A203.945,203.945,0,0,1,10.427,291.5a338.438,338.438,0,0,1-7.82-44.517,442.875,442.875,0,0,1,0-95.96,338.439,338.439,0,0,1,7.82-44.518A203.953,203.953,0,0,1,23.461,68.911c5.362-11.3,11.5-20.457,18.247-27.2s15.9-12.885,27.2-18.247A203.95,203.95,0,0,1,106.5,10.427a338.447,338.447,0,0,1,44.518-7.82,442.869,442.869,0,0,1,95.96,0,338.439,338.439,0,0,1,44.517,7.82A203.94,203.94,0,0,1,329.09,23.46c11.3,5.362,20.456,11.5,27.2,18.247s12.885,15.9,18.247,27.2A203.955,203.955,0,0,1,387.572,106.5a338.445,338.445,0,0,1,7.82,44.518A435.439,435.439,0,0,1,398,199a435.43,435.43,0,0,1-2.607,47.98,338.439,338.439,0,0,1-7.82,44.517,203.944,203.944,0,0,1-13.033,37.591c-5.362,11.3-11.5,20.457-18.247,27.2s-15.9,12.885-27.2,18.247A203.947,203.947,0,0,1,291.5,387.572a338.441,338.441,0,0,1-44.517,7.82A435.413,435.413,0,0,1,199,398Zm0-211a12.014,12.014,0,0,1,12,12v50a50,50,0,1,0,100,0V199a19,19,0,0,0-38,0v50a12,12,0,1,1-24,0V199a50,50,0,1,0-100,0v50a12,12,0,1,1-24,0V118a19,19,0,0,0-38,0V249a50,50,0,1,0,100,0V199A12.013,12.013,0,0,1,199,187Z" transform="translate(761 341.001)"/><rect class="b" width="24" height="82.737" rx="12" transform="translate(855 447)"/><rect class="c" width="24" height="45.737" rx="12" transform="translate(1041 528)"/></g></svg>